<svg data-v-0dd9719b="" version="1.0" xmlns="http://www.w3.org/2000/svg" xmlns:xlink="http://www.w3.org/1999/xlink" width="73" height="73" viewBox="0 0 44.400001525878906 44.400001525878906" preserveAspectRatio="xMidYMid meet" color-interpolation-filters="sRGB"> <rect data-v-0dd9719b="" x="0" y="0" width="100%" height="100%" fill="#FFFFFF" fill-opacity="1" class="background" style="display: none;"></rect> <rect data-v-0dd9719b="" x="0" y="0" width="100%" height="100%" fill="url(&quot;#watermark&quot;)" fill-opacity="1" class="watermarklayer" style="display: none;"></rect> <g data-v-0dd9719b="" class="imagesvg isNoFont"><g mask="url(#6c66d197-f3a4-492b-95f2-e4ad3d0f04b3)"><rect fill="#333333" fill-opacity="0" stroke-width="2px" x="0" y="0" width="44.399999999999984" height="44.399999999999984" class="image-rect"></rect> <svg x="0" y="0" width="44.399999999999984" height="44.399999999999984" filtersec="colorsf2148549224" class="image-svg-svg primary" style="overflow: visible;"><defs><linearGradient x1="0" y1="1" x2="0" y2="0" id="phdBEedy5nga7J1S4SmxG"><stop offset="0%" stop-color="#fd9248"></stop><stop offset="50%" stop-color="#fa1768"></stop><stop offset="100%" stop-color="#f001ff"></stop></linearGradient></defs><svg xmlns="http://www.w3.org/2000/svg" xmlns:xlink="http://www.w3.org/1999/xlink" version="1.1" x="0px" y="0px" viewBox="1.1000003814697266 1.100000023841858 97.80000305175781 97.80000305175781" xml:space="preserve"><path d="M38.3,62.2c3.3-0.9,6.7-1.4,10.2-1.4v-8.8H37C37.1,55.5,37.6,58.9,38.3,62.2z"></path><path d="M39.4,34.6c3,0.8,6,1.3,9,1.5V23.3C44.9,24.2,41.6,28.4,39.4,34.6z"></path><path d="M48.5,77.4V63.8c-3.2,0.1-6.3,0.5-9.3,1.3C41.2,71.9,44.7,76.4,48.5,77.4z"></path><path d="M37,48.8h11.4v-9.7c-3.3-0.2-6.6-0.7-9.9-1.6C37.7,41,37.1,44.9,37,48.8z"></path><path d="M30.1,68.9c3.1,3.4,7.1,5.9,11.4,7.3c-2.2-2.5-4-6-5.3-10.2C34.1,66.8,32.1,67.8,30.1,68.9z"></path><path d="M69.4,31.3c-3.1-3.1-6.8-5.5-10.9-6.8c2.1,2.4,3.8,5.6,5.1,9.5C65.6,33.2,67.5,32.3,69.4,31.3z"></path><path d="M41.5,24.5c-4.1,1.3-7.8,3.7-10.9,6.8c1.3,0.7,3.3,1.6,5.9,2.4C37.8,29.9,39.5,26.8,41.5,24.5z"></path><path d="M35.6,36.6c-3.3-1.1-5.8-2.3-7.1-3c-3.4,4.4-5.4,9.6-5.7,15.2H34C34.1,44.5,34.6,40.4,35.6,36.6z"></path><path d="M34,51.9H22.8c0.3,5.3,2.1,10.4,5.3,14.6c2.3-1.4,4.8-2.5,7.3-3.4C34.5,59.6,34.1,55.8,34,51.9z"></path><path d="M66,48.8h11.2c-0.3-5.6-2.3-10.8-5.7-15.2c-2.3,1.3-4.6,2.4-7.1,3.2C65.4,40.6,65.9,44.6,66,48.8z"></path><path d="M64.6,63.3c3.6,1.2,6.2,2.5,7.3,3.2c3.2-4.3,5-9.3,5.3-14.6H66C65.9,55.9,65.4,59.8,64.6,63.3z"></path><path d="M51.5,23.3v12.8c3.1-0.1,6.2-0.5,9.1-1.3C58.5,28.5,55.1,24.2,51.5,23.3z"></path><path d="M74.4,1.1H25.6c-13.5,0-24.5,11-24.5,24.5v48.8c0,13.5,11,24.5,24.5,24.5h48.8c13.5,0,24.5-11,24.5-24.5V25.6  C98.9,12.1,87.9,1.1,74.4,1.1z M50,80.7c-16.7,0-30.3-13.6-30.3-30.3C19.7,33.6,33.3,20,50,20h0c16.7,0,30.3,13.6,30.3,30.3  S66.7,80.7,50,80.7z"></path><path d="M58.5,76.2c4.3-1.4,8.3-3.9,11.4-7.3c-1.2-0.6-3.3-1.7-6.2-2.6C62.4,70.4,60.6,73.8,58.5,76.2z"></path><path d="M61.5,37.8c-3.2,0.9-6.6,1.3-10,1.4v9.6H63C62.9,44.9,62.4,41.2,61.5,37.8z"></path><path d="M63,51.9H51.5v8.9c3.3,0.2,6.7,0.7,10.1,1.6C62.4,59.1,62.9,55.6,63,51.9z"></path><path d="M51.5,63.9v13.5c3.7-1,7.1-5.4,9.3-12C57.7,64.5,54.6,64,51.5,63.9z"></path></svg><rect v-gra="id" width="56.400001525878906" height="56.400001525878906" transform="translate(-6, -6)" style="pointer-events:none;" fill="url(&quot;#phdBEedy5nga7J1S4SmxG&quot;)"></rect></svg> <defs><filter id="colors5388586131"><feColorMatrix type="matrix" values="0 0 0 0 0.19921875  0 0 0 0 0.19921875  0 0 0 0 0.19921875  0 0 0 1 0" class="icon-fecolormatrix"></feColorMatrix></filter> <filter id="colorsf2148549224"><feColorMatrix type="matrix" values="0 0 0 0 0.99609375  0 0 0 0 0.99609375  0 0 0 0 0.99609375  0 0 0 1 0" class="icon-fecolormatrix"></feColorMatrix></filter> <filter id="colorsb3228237537"><feColorMatrix type="matrix" values="0 0 0 0 0  0 0 0 0 0  0 0 0 0 0  0 0 0 1 0" class="icon-fecolormatrix"></feColorMatrix></filter><pattern id="watermark" patternUnits="userSpaceOnUse" width="100%" height="100%">
<image xlink:href="https://www.logoai.com/img/watermark/LOGOAI-watermark.png" x="0" y="0" width="100%" height="100%">
</image>
</pattern></defs></g></g><defs v-gra="od"></defs><defs v-gra="id"><filter id="d5f847f4-1415-410b-a91b-a2ba59794a55" filterUnits="userSpaceOnUse"><feColorMatrix type="matrix" values="0 0 0 0 0.99609375  0 0 0 0 0.99609375  0 0 0 0 0.99609375  0 0 0 1 0"></feColorMatrix></filter><linearGradient x1="0" y1="1" x2="0" y2="0" id="phdBEedy5nga7J1S4SmxG"><stop offset="0%" stop-color="#fd9248"></stop><stop offset="50%" stop-color="#fa1768"></stop><stop offset="100%" stop-color="#f001ff"></stop></linearGradient><filter id="42443b3f1de60f6b6fd3b6a9844b4764" filterUnits="objectBoundingBox"><feColorMatrix type="matrix" values="0 0 0 0 0.99609375  0 0 0 0 0.99609375  0 0 0 0 0.99609375  0 0 0 1 0"></feColorMatrix></filter></defs><mask v-gra="im" id="6c66d197-f3a4-492b-95f2-e4ad3d0f04b3"><svg filter="url(#d5f847f4-1415-410b-a91b-a2ba59794a55)" x="0" y="0" width="44.399999999999984" height="44.399999999999984" filtersec="colorsf2148549224" class="image-svg-svg primary" style="overflow: visible;"><svg xmlns="http://www.w3.org/2000/svg" xmlns:xlink="http://www.w3.org/1999/xlink" version="1.1" x="0px" y="0px" viewBox="1.1000003814697266 1.100000023841858 97.80000305175781 97.80000305175781" xml:space="preserve"><path d="M38.3,62.2c3.3-0.9,6.7-1.4,10.2-1.4v-8.8H37C37.1,55.5,37.6,58.9,38.3,62.2z"></path><path d="M39.4,34.6c3,0.8,6,1.3,9,1.5V23.3C44.9,24.2,41.6,28.4,39.4,34.6z"></path><path d="M48.5,77.4V63.8c-3.2,0.1-6.3,0.5-9.3,1.3C41.2,71.9,44.7,76.4,48.5,77.4z"></path><path d="M37,48.8h11.4v-9.7c-3.3-0.2-6.6-0.7-9.9-1.6C37.7,41,37.1,44.9,37,48.8z"></path><path d="M30.1,68.9c3.1,3.4,7.1,5.9,11.4,7.3c-2.2-2.5-4-6-5.3-10.2C34.1,66.8,32.1,67.8,30.1,68.9z"></path><path d="M69.4,31.3c-3.1-3.1-6.8-5.5-10.9-6.8c2.1,2.4,3.8,5.6,5.1,9.5C65.6,33.2,67.5,32.3,69.4,31.3z"></path><path d="M41.5,24.5c-4.1,1.3-7.8,3.7-10.9,6.8c1.3,0.7,3.3,1.6,5.9,2.4C37.8,29.9,39.5,26.8,41.5,24.5z"></path><path d="M35.6,36.6c-3.3-1.1-5.8-2.3-7.1-3c-3.4,4.4-5.4,9.6-5.7,15.2H34C34.1,44.5,34.6,40.4,35.6,36.6z"></path><path d="M34,51.9H22.8c0.3,5.3,2.1,10.4,5.3,14.6c2.3-1.4,4.8-2.5,7.3-3.4C34.5,59.6,34.1,55.8,34,51.9z"></path><path d="M66,48.8h11.2c-0.3-5.6-2.3-10.8-5.7-15.2c-2.3,1.3-4.6,2.4-7.1,3.2C65.4,40.6,65.9,44.6,66,48.8z"></path><path d="M64.6,63.3c3.6,1.2,6.2,2.5,7.3,3.2c3.2-4.3,5-9.3,5.3-14.6H66C65.9,55.9,65.4,59.8,64.6,63.3z"></path><path d="M51.5,23.3v12.8c3.1-0.1,6.2-0.5,9.1-1.3C58.5,28.5,55.1,24.2,51.5,23.3z"></path><path d="M74.4,1.1H25.6c-13.5,0-24.5,11-24.5,24.5v48.8c0,13.5,11,24.5,24.5,24.5h48.8c13.5,0,24.5-11,24.5-24.5V25.6  C98.9,12.1,87.9,1.1,74.4,1.1z M50,80.7c-16.7,0-30.3-13.6-30.3-30.3C19.7,33.6,33.3,20,50,20h0c16.7,0,30.3,13.6,30.3,30.3  S66.7,80.7,50,80.7z"></path><path d="M58.5,76.2c4.3-1.4,8.3-3.9,11.4-7.3c-1.2-0.6-3.3-1.7-6.2-2.6C62.4,70.4,60.6,73.8,58.5,76.2z"></path><path d="M61.5,37.8c-3.2,0.9-6.6,1.3-10,1.4v9.6H63C62.9,44.9,62.4,41.2,61.5,37.8z"></path><path d="M63,51.9H51.5v8.9c3.3,0.2,6.7,0.7,10.1,1.6C62.4,59.1,62.9,55.6,63,51.9z"></path><path d="M51.5,63.9v13.5c3.7-1,7.1-5.4,9.3-12C57.7,64.5,54.6,64,51.5,63.9z"></path></svg></svg></mask></svg>